<?xml version="1.0" standalone="no"?>
<!DOCTYPE svg PUBLIC "-//W3C//DTD SVG 20010904//EN"
 "http://www.w3.org/TR/2001/REC-SVG-20010904/DTD/svg10.dtd">
<svg version="1.0" xmlns="http://www.w3.org/2000/svg"
 width="700.000000pt" height="700.000000pt" viewBox="0 0 700.000000 700.000000"
 preserveAspectRatio="xMidYMid meet">
<metadata>
Created by potrace 1.11, written by Peter Selinger 2001-2013
</metadata>
<g transform="translate(0.000000,700.000000) scale(0.100000,-0.100000)"
fill="#000000" stroke="none">
<path d="M3445 6860 c-145 -125 -263 -276 -335 -424 -59 -123 -71 -173 -75
-298 l-4 -96 27 3 c15 2 41 6 57 9 75 13 95 15 175 21 186 13 437 5 588 -19
45 -7 84 -10 87 -6 9 15 -4 188 -19 245 -35 133 -152 326 -272 451 -68 70
-162 154 -173 154 -6 0 -31 -18 -56 -40z"/>
<path d="M1123 5912 c-37 -4 -35 9 -38 -182 -5 -239 47 -454 143 -599 45 -67
141 -166 151 -155 4 5 36 47 71 94 78 105 96 125 241 269 63 64 162 152 220
195 57 44 108 82 112 86 12 11 -90 112 -155 154 -143 91 -327 137 -558 140
-85 1 -170 0 -187 -2z"/>
<path d="M5485 5900 c-201 -35 -348 -102 -450 -205 -72 -72 -72 -66 3 -120 37
-27 69 -52 72 -55 3 -3 32 -27 65 -54 84 -70 221 -207 294 -296 83 -100 81
-98 120 -152 38 -53 37 -53 96 7 119 118 197 299 224 519 9 80 8 353 -3 363
-15 15 -321 10 -421 -7z"/>
<path d="M3377 5644 c-1 -1 -36 -5 -77 -8 -119 -11 -144 -15 -290 -45 -127
-27 -338 -104 -481 -177 -244 -122 -500 -328 -687 -550 -197 -234 -365 -580
-436 -896 -25 -112 -28 -132 -42 -273 -13 -129 -8 -363 10 -485 2 -14 7 -47
11 -75 43 -297 204 -667 405 -930 75 -99 90 -116 205 -230 231 -229 504 -399
800 -499 143 -48 170 -56 203 -62 15 -3 43 -9 62 -14 19 -5 51 -11 70 -14 19
-3 44 -7 55 -10 123 -25 475 -25 615 -1 14 3 43 8 65 11 77 11 211 46 325 84
419 139 788 415 1064 794 168 232 318 592 361 871 5 28 9 57 10 65 25 161 25
410 -1 605 -47 369 -229 777 -478 1073 -73 88 -259 264 -353 335 -56 42 -104
77 -107 77 -2 0 -31 17 -63 38 -186 122 -481 238 -708 277 -16 3 -37 8 -45 10
-8 2 -40 7 -70 10 -30 3 -73 9 -95 12 -38 5 -322 12 -328 7z"/>
<path d="M720 3948 c-101 -25 -280 -112 -333 -161 -6 -7 -28 -24 -47 -38 -47
-35 -178 -165 -214 -211 l-28 -38 25 -32 c67 -88 222 -229 323 -293 151 -97
274 -138 414 -139 89 -1 95 0 93 19 -2 19 -7 60 -18 145 -27 210 -22 479 15
713 4 26 4 49 1 51 -17 11 -165 0 -231 -16z"/>
<path d="M6051 3961 c-7 -5 -11 -13 -8 -17 3 -5 8 -31 11 -59 4 -27 9 -66 11
-85 22 -153 21 -520 0 -600 -4 -14 -15 -101 -18 -145 -2 -19 4 -20 94 -19 200
2 402 100 606 294 73 70 153 160 153 172 0 10 -91 112 -154 171 -132 125 -318
237 -451 273 -69 18 -223 28 -244 15z"/>
<path d="M1323 1983 c-128 -124 -205 -298 -231 -518 -8 -73 -8 -363 1 -372 9
-9 301 -9 370 -1 181 23 340 81 441 161 63 50 128 119 119 127 -4 4 -37 29
-73 55 -198 148 -405 357 -540 548 -18 26 -34 47 -36 47 -1 0 -24 -21 -51 -47z"/>
<path d="M5563 1948 c-82 -110 -129 -164 -244 -278 -114 -114 -134 -132 -247
-217 -48 -37 -91 -70 -95 -73 -12 -11 78 -99 150 -148 105 -71 254 -122 411
-139 106 -12 351 -8 365 6 8 8 12 62 11 184 0 139 -5 192 -23 277 -40 187
-104 315 -207 417 -29 29 -55 53 -57 53 -1 0 -30 -37 -64 -82z"/>
<path d="M3037 953 c-13 -22 2 -203 23 -268 57 -182 216 -405 392 -549 l48
-38 42 33 c197 156 374 421 415 619 9 44 14 198 6 203 -4 3 -29 2 -53 -3 -42
-8 -87 -13 -205 -26 -108 -11 -420 -5 -501 10 -11 2 -44 7 -74 11 -30 3 -62 9
-72 11 -9 3 -18 1 -21 -3z"/>
</g>
</svg>
